# xmcd
#
# Track frame offsets: 
#        150
#        4920
#        24382
#        35822
#        52825
#        75087
#        88807
#        109882
#        120180
#        150145
#        157747
#        169615
#        182065
#        197275
#        209262
#        222497
#        233972
#        243222
#        262007
#        277082
#        285837
#        299830
#
# Disc length: 4205 seconds
#
# Revision: 8
# Processed by: cddbd v1.5.2PL0 Copyright (c) Steve Scherf et al.
# Submitted via: ExactAudioCopy v1.0b3
#
DISCID=1d108116,20106b16
DTITLE=Taj Mahal - Giant Step
DYEAR=1968
DGENRE=Blues
TTITLE0=(1. Giant Step) Ain't Gwine Whistle Dixie Anymo'
TTITLE1=Take a Giant Step
TTITLE2=Give Your Woman What She Wants
TTITLE3=Good Morning Little School Girl
TTITLE4=You're Gonna Need Somebody On Your Bond
TTITLE5=Six Days On the Road
TTITLE6=Farther On Down the Road (You Will Accompany Me)
TTITLE7=Keep Your Hands Off Her
TTITLE8=Bacon Fat
TTITLE9=(2.De ole Folks at Home) Linin' Track
TTITLE10=Country Blues #1
TTITLE11=Wild Ox Moan
TTITLE12=Light Rain Blues
TTITLE13=A Little Soulful Tune
TTITLE14=Candy Man
TTITLE15=Cluck Old Hen
TTITLE16=Colored Aristocracy
TTITLE17=Blind Boy Rag
TTITLE18=Stagger Lee
TTITLE19=Cajun Tune
TTITLE20=Fishin' Blues
TTITLE21=Annie's Lover
EXTD=Taj Mahal: Vocals, Harmonica, Banjo, National Steel Guitar\nJesse
EXTD=Edwin Davis: Electric Guitar, Acoustic Guitar, Piano, Organ\nGar
EXTD=y Gilmore: Electric Bass\nChuck "Brother" Blackwell: Drums\n\nCol
EXTD=umbia CGK 18\n\nWas originally released as two separate disks - Gi
EXTD=ant Step\n(with band) (tracks 1-9), and De Ole Folks At Home (Taj
EXTD=\nMahal solo) (tracks 10-22).\n
EXTT0=
EXTT1=
EXTT2=
EXTT3=
EXTT4=
EXTT5=
EXTT6=
EXTT7=
EXTT8=
EXTT9=
EXTT10=
EXTT11=
EXTT12=
EXTT13=
EXTT14=
EXTT15=
EXTT16=
EXTT17=
EXTT18=
EXTT19=
EXTT20=
EXTT21=
PLAYORDER=
